<?xml version="1.0" encoding="iso-8859-1"?>
<!-- Generator: Adobe Illustrator 18.1.1, SVG Export Plug-In . SVG Version: 6.00 Build 0)  -->
<svg version="1.1" id="Capa_1" xmlns="http://www.w3.org/2000/svg" xmlns:xlink="http://www.w3.org/1999/xlink" x="0px" y="0px"
	 viewBox="0 0 51.668 51.668" style="enable-background:new 0 0 51.668 51.668;" xml:space="preserve">
<g>
	<path style="fill:#010002;" d="M24.259,22.059L10.875,11.568c-0.87-0.682-0.679-1.234,0.425-1.234h29.066
		c1.105,0,1.295,0.552,0.426,1.234L27.408,22.059C26.538,22.74,25.129,22.74,24.259,22.059z M4.674,11.687
		c-0.18-0.254-1.081-0.112-1.915,0.612C1.07,13.764,0,15.922,0,18.334v15c0,0.616,0.072,1.214,0.205,1.788
		c0.226,0.97,1.284,1.116,2.126,0.401L16.46,23.518c0.842-0.715,0.819-1.847-0.05-2.529L5.062,12.094
		C4.909,11.975,4.78,11.837,4.674,11.687z M35.481,20.814c-0.869,0.681-0.894,1.816-0.055,2.535l14,11.994
		c0.839,0.719,1.857,0.606,2.059-0.315c0.12-0.546,0.183-1.112,0.183-1.694v-15c0-2.412-1.07-4.57-2.759-6.035
		c-0.834-0.724-1.735-0.866-1.915-0.612c-0.107,0.15-0.236,0.288-0.388,0.407L35.481,20.814z M26.544,27.692
		c-0.047,0.018-0.094,0.035-0.142,0.049c-0.183,0.054-0.37,0.091-0.561,0.092c-0.206-0.001-0.393-0.038-0.576-0.092
		c-0.048-0.014-0.094-0.031-0.142-0.049c-0.18-0.068-0.352-0.155-0.508-0.275c-0.015-0.01-0.954-0.745-1.844-1.442
		c-0.87-0.681-2.256-0.653-3.098,0.062L4.918,38.573c-0.842,0.715-0.795,1.841,0.236,2.236C6.038,41.148,6.997,41.334,8,41.334
		h35.667c1.071,0,2.091-0.213,3.023-0.597c1.021-0.421,1.055-1.565,0.217-2.284L32.214,25.866c-0.839-0.719-2.224-0.749-3.093-0.067
		l-2.041,1.599C26.896,27.537,26.723,27.623,26.544,27.692z"/>
</g>
</svg>
