<?xml version="1.0" encoding="UTF-8"?>
<svg xmlns="http://www.w3.org/2000/svg" xmlns:xlink="http://www.w3.org/1999/xlink" width="70pt" height="70pt" viewBox="0 0 70 70" version="1.1">
<g id="surface1">
<path style=" stroke:none;fill-rule:nonzero;fill:rgb(0%,0%,0%);fill-opacity:1;" d="M 64.289062 21.625 C 65.046875 19.355469 65.425781 16.996094 65.425781 14.558594 C 65.425781 11.304688 64.710938 8.246094 63.277344 5.386719 C 60.277344 5.386719 57.628906 5.933594 55.328125 7.027344 C 53.027344 8.121094 50.40625 9.816406 47.460938 12.117188 C 43.757812 11.21875 39.832031 10.769531 35.679688 10.769531 C 31.136719 10.769531 26.800781 11.261719 22.679688 12.242188 C 19.675781 9.886719 17.027344 8.15625 14.726562 7.046875 C 12.425781 5.9375 9.761719 5.386719 6.730469 5.386719 C 5.300781 8.246094 4.585938 11.304688 4.585938 14.558594 C 4.585938 17.027344 4.964844 19.410156 5.722656 21.710938 C 1.90625 26.171875 0 31.722656 0 38.371094 C 0 44.207031 0.871094 48.847656 2.609375 52.300781 C 3.535156 54.121094 4.742188 55.734375 6.226562 57.136719 C 7.714844 58.539062 9.410156 59.675781 11.316406 60.546875 C 13.226562 61.414062 15.148438 62.136719 17.082031 62.710938 C 19.019531 63.289062 21.15625 63.707031 23.5 63.972656 C 25.839844 64.242188 27.910156 64.417969 29.703125 64.5 C 31.5 64.585938 33.492188 64.628906 35.679688 64.628906 C 38.257812 64.628906 40.601562 64.5625 42.707031 64.4375 C 44.808594 64.3125 47.214844 64.003906 49.921875 63.511719 C 52.628906 63.023438 55.011719 62.355469 57.074219 61.515625 C 59.136719 60.671875 61.113281 59.464844 63.007812 57.894531 C 64.902344 56.324219 66.378906 54.460938 67.445312 52.300781 C 69.15625 48.820312 70.011719 44.179688 70.011719 38.371094 C 70.011719 31.695312 68.105469 26.113281 64.289062 21.625 Z M 59.242188 52.234375 C 58.34375 54.074219 57.207031 55.515625 55.832031 56.570312 C 54.457031 57.621094 52.746094 58.460938 50.699219 59.09375 C 48.652344 59.726562 46.6875 60.140625 44.808594 60.335938 C 42.929688 60.53125 40.839844 60.628906 38.539062 60.628906 L 31.472656 60.628906 C 29.171875 60.628906 27.082031 60.53125 25.203125 60.335938 C 23.324219 60.140625 21.359375 59.726562 19.3125 59.09375 C 17.265625 58.460938 15.554688 57.621094 14.179688 56.570312 C 12.804688 55.515625 11.667969 54.074219 10.769531 52.234375 C 9.875 50.398438 9.425781 48.246094 9.425781 45.777344 C 9.425781 42.410156 10.390625 39.546875 12.328125 37.195312 C 14.261719 34.835938 16.886719 33.660156 20.195312 33.660156 C 21.402344 33.660156 24.136719 33.953125 28.398438 34.542969 C 30.390625 34.851562 32.59375 35.003906 35.003906 35.003906 C 37.417969 35.003906 39.621094 34.851562 41.613281 34.542969 C 45.933594 33.953125 48.664062 33.660156 49.816406 33.660156 C 53.125 33.660156 55.75 34.839844 57.683594 37.195312 C 59.621094 39.550781 60.585938 42.410156 60.585938 45.777344 C 60.585938 48.246094 60.136719 50.398438 59.242188 52.234375 Z M 59.242188 52.234375 "/>
<path style=" stroke:none;fill-rule:nonzero;fill:rgb(0%,0%,0%);fill-opacity:1;" d="M 24.59375 39.128906 C 23.738281 38.175781 22.71875 37.699219 21.542969 37.699219 C 20.363281 37.699219 19.347656 38.175781 18.492188 39.128906 C 17.636719 40.082031 17.03125 41.148438 16.683594 42.324219 C 16.332031 43.503906 16.15625 44.65625 16.15625 45.777344 C 16.15625 46.898438 16.332031 48.046875 16.683594 49.226562 C 17.03125 50.40625 17.636719 51.472656 18.492188 52.425781 C 19.347656 53.378906 20.363281 53.855469 21.542969 53.855469 C 22.71875 53.855469 23.738281 53.378906 24.59375 52.425781 C 25.449219 51.472656 26.050781 50.40625 26.402344 49.226562 C 26.75 48.046875 26.925781 46.898438 26.925781 45.777344 C 26.925781 44.65625 26.753906 43.503906 26.402344 42.324219 C 26.050781 41.148438 25.449219 40.082031 24.59375 39.128906 Z M 24.59375 39.128906 "/>
<path style=" stroke:none;fill-rule:nonzero;fill:rgb(0%,0%,0%);fill-opacity:1;" d="M 51.519531 39.128906 C 50.664062 38.175781 49.648438 37.699219 48.46875 37.699219 C 47.292969 37.699219 46.273438 38.175781 45.417969 39.128906 C 44.5625 40.082031 43.960938 41.148438 43.609375 42.324219 C 43.257812 43.503906 43.085938 44.65625 43.085938 45.777344 C 43.085938 46.898438 43.257812 48.046875 43.609375 49.226562 C 43.960938 50.40625 44.5625 51.472656 45.417969 52.425781 C 46.273438 53.378906 47.292969 53.855469 48.46875 53.855469 C 49.648438 53.855469 50.664062 53.378906 51.519531 52.425781 C 52.375 51.472656 52.976562 50.40625 53.328125 49.226562 C 53.679688 48.046875 53.855469 46.898438 53.855469 45.777344 C 53.855469 44.65625 53.679688 43.503906 53.328125 42.324219 C 52.980469 41.148438 52.375 40.082031 51.519531 39.128906 Z M 51.519531 39.128906 "/>
</g>
</svg>
